<svg width="173" height="28" viewBox="0 0 173 28" fill="none" xmlns="http://www.w3.org/2000/svg">
<path d="M159.699 15.962V27.6143H153.195V0.372559H159.486V10.934H159.712C160.174 9.67482 160.927 8.6905 161.974 7.98108C163.029 7.27166 164.319 6.91695 165.845 6.91695C167.281 6.91695 168.531 7.23619 169.596 7.87467C170.66 8.50428 171.484 9.39549 172.07 10.5483C172.664 11.7011 172.956 13.049 172.948 14.592V27.6143H166.443V15.8689C166.452 14.7339 166.168 13.8471 165.592 13.2086C165.015 12.5701 164.204 12.2509 163.158 12.2509C162.475 12.2509 161.872 12.4017 161.349 12.7032C160.834 12.9958 160.431 13.417 160.138 13.9668C159.854 14.5166 159.708 15.1817 159.699 15.962Z" fill="#0F5FDC"/>
<path d="M140.382 28C138.227 28 136.378 27.5567 134.835 26.6699C133.301 25.7831 132.122 24.5505 131.297 22.972C130.472 21.3847 130.06 19.5491 130.06 17.4652C130.06 15.3724 130.472 13.5368 131.297 11.9583C132.13 10.371 133.314 9.13393 134.848 8.24715C136.391 7.36038 138.231 6.91699 140.369 6.91699C142.257 6.91699 143.902 7.2584 145.303 7.94122C146.713 8.62403 147.813 9.59062 148.602 10.841C149.4 12.0825 149.822 13.5412 149.866 15.2172H143.787C143.663 14.1708 143.308 13.3505 142.723 12.7564C142.147 12.1623 141.393 11.8652 140.462 11.8652C139.708 11.8652 139.047 12.078 138.48 12.5037C137.912 12.9205 137.469 13.5412 137.15 14.3659C136.839 15.1817 136.684 16.1926 136.684 17.3987C136.684 18.6047 136.839 19.6245 137.15 20.458C137.469 21.2827 137.912 21.9079 138.48 22.3336C139.047 22.7503 139.708 22.9587 140.462 22.9587C141.065 22.9587 141.597 22.8302 142.058 22.573C142.528 22.3158 142.914 21.9389 143.215 21.4424C143.517 20.9369 143.707 20.325 143.787 19.6067H149.866C149.804 21.2916 149.383 22.7636 148.602 24.0229C147.831 25.2821 146.744 26.262 145.343 26.9625C143.951 27.6542 142.297 28 140.382 28Z" fill="#0F5FDC"/>
<path d="M117.826 28C115.689 28 113.844 27.5788 112.292 26.7364C110.749 25.8851 109.561 24.6746 108.727 23.1051C107.903 21.5266 107.49 19.6511 107.49 17.4785C107.49 15.368 107.907 13.5235 108.741 11.945C109.574 10.3577 110.749 9.12506 112.266 8.24715C113.782 7.36038 115.569 6.91699 117.626 6.91699C119.08 6.91699 120.411 7.14312 121.617 7.59537C122.823 8.04763 123.865 8.71714 124.742 9.60392C125.62 10.4907 126.303 11.5859 126.791 12.8894C127.279 14.1841 127.523 15.6695 127.523 17.3455V18.9683H109.765V15.1906H121.47C121.461 14.4989 121.297 13.8826 120.978 13.3417C120.659 12.8007 120.22 12.3795 119.661 12.078C119.111 11.7676 118.477 11.6125 117.759 11.6125C117.032 11.6125 116.38 11.7765 115.804 12.1046C115.227 12.4239 114.771 12.8628 114.434 13.4215C114.097 13.9713 113.919 14.5965 113.902 15.297V19.1412C113.902 19.9747 114.066 20.7063 114.394 21.3359C114.722 21.9567 115.187 22.44 115.79 22.7858C116.394 23.1317 117.112 23.3046 117.945 23.3046C118.522 23.3046 119.045 23.2248 119.515 23.0651C119.985 22.9055 120.388 22.6705 120.725 22.3602C121.062 22.0498 121.315 21.6685 121.484 21.2162L127.456 21.3891C127.208 22.7282 126.662 23.8943 125.82 24.8875C124.986 25.8718 123.891 26.6388 122.534 27.1886C121.178 27.7296 119.608 28 117.826 28Z" fill="#0F5FDC"/>
<path d="M84.9973 5.71981V0.372559H108.022V5.71981H99.7621V27.6143H93.2709V5.71981H84.9973Z" fill="#0F5FDC"/>
<path d="M64.5418 27.6143C60.1088 27.6143 56.5152 24.0206 56.5152 19.5877V0.372559H63.0995V22.267H74.4325V27.6143H64.5418Z" fill="#0F5FDC"/>
<path d="M52.7475 10.2422H46.0967C46.0081 9.55943 45.8263 8.94312 45.5514 8.39332C45.2765 7.84352 44.9129 7.37353 44.4606 6.98335C44.0084 6.59317 43.4719 6.2961 42.8511 6.09214C42.2393 5.87931 41.5609 5.7729 40.816 5.7729C39.4947 5.7729 38.3552 6.09657 37.3975 6.74392C36.4486 7.39126 35.717 8.32681 35.2027 9.55056C34.6972 10.7743 34.4445 12.2552 34.4445 13.9933C34.4445 15.8023 34.7017 17.3187 35.216 18.5424C35.7392 19.7573 36.4708 20.6751 37.4108 21.2959C38.3596 21.9078 39.4814 22.2137 40.7761 22.2137C41.5032 22.2137 42.1639 22.1206 42.758 21.9344C43.361 21.7481 43.8887 21.4777 44.3409 21.123C44.802 20.7594 45.1789 20.3204 45.4716 19.8061C45.7731 19.2829 45.9815 18.6932 46.0967 18.037L52.7475 18.0769C52.6323 19.2829 52.282 20.4712 51.6967 21.6417C51.1203 22.8123 50.3266 23.8808 49.3157 24.8474C48.3048 25.8051 47.0722 26.5678 45.6179 27.1353C44.1724 27.7028 42.5142 27.9866 40.6431 27.9866C38.1778 27.9866 35.9698 27.4457 34.0189 26.3638C32.0768 25.2731 30.5427 23.6857 29.4165 21.6018C28.2903 19.5179 27.7272 16.9817 27.7272 13.9933C27.7272 10.996 28.2992 8.45539 29.4431 6.37147C30.5871 4.28755 32.1345 2.70466 34.0854 1.6228C36.0363 0.540932 38.2222 0 40.6431 0C42.2925 0 43.8177 0.230561 45.2188 0.691685C46.6199 1.14394 47.8525 1.80902 48.9167 2.68692C49.9808 3.55596 50.8454 4.62453 51.5105 5.89261C52.1756 7.1607 52.5879 8.61058 52.7475 10.2422Z" fill="#0F5FDC"/>
<path d="M0 27.6143V0.372559H6.5843V11.3065H17.3187V0.372559H23.8897V27.6143H17.3187V16.667H6.5843V27.6143H0Z" fill="#0F5FDC"/>
</svg>
